# AST/ASF file generated using VICON BodyLanguage
# -----------------------------------------------
:version 1.10
:name VICON
:units
  mass 1.0
  length 0.45
  angle deg
:documentation
   .ast/.asf automatically generated from VICON data using
   VICON BodyBuilder and BodyLanguage model FoxedUp or BRILLIANT.MOD
:root
   order TX TY TZ RX RY RZ
   axis XYZ
   position 0 0 0  
   orientation 0 0 0 
:bonedata
  begin
     id 1 
     name lhipjoint
     direction 0.576517 -0.752066 0.319413 
     length 2.45433 
     axis 0 0 0  XYZ
  end
  begin
     id 2 
     name lfemur
     direction 0.34202 -0.939693 0  
     length 7.54459  
     axis 0 0 20  XYZ
    dof rx ry rz
    limits (-160.0 20.0)
           (-70.0 70.0)
           (-60.0 70.0)
  end
  begin
     id 3 
     name ltibia
     direction 0.34202 -0.939693 0   
     length 7.73986   
     axis 0 0 20   XYZ
    dof rx
    limits (-10.0 170.0)
  end
  begin
     id 4 
     name lfoot
     direction 0.090693 -0.249177 0.964202   
     length 2.28437   
     axis -90 7.62852e-016 20   XYZ
    dof rx rz
    limits (-45.0 90.0)
           (-70.0 20.0)
  end
  begin
     id 5 
     name ltoes
     direction 1.5356e-011 -4.21928e-011 1   
     length 1.14243   
     axis -90 7.62852e-016 20   XYZ
    dof rx
    limits (-90.0 20.0)
  end
  begin
     id 6 
     name rhipjoint
     direction -0.573937 -0.753736 0.320122   
     length 2.44889  
     axis 0 0 0  XYZ 
  end
  begin
     id 7 
     name rfemur
     direction -0.34202 -0.939693 0   
     length 7.50166   
     axis 0 0 -20   XYZ
    dof rx ry rz
    limits (-160.0 20.0)
           (-70.0 70.0)
           (-70.0 60.0)
  end
  begin
     id 8 
     name rtibia
     direction -0.34202 -0.939693 0   
     length 7.54266   
     axis 0 0 -20   XYZ
    dof rx
    limits (-10.0 170.0)
 end
 begin
     id 9 
     name rfoot
     direction -0.114017 -0.31326 0.942798   
     length 2.34212  
     axis -90 -7.62852e-016 -20   XYZ
    dof rx rz
    limits (-45.0 90.0)
           (-20.0 70.0)
  end
  begin
     id 10 
     name rtoes
     direction -1.53557e-011 -4.21867e-011 1   
     length 1.16246   
     axis -90 -7.62852e-016 -20   XYZ
    dof rx
    limits (-90.0 20.0)
  end
  begin
     id 11 
     name lowerback
     direction -0.0228371 0.999155 -0.034167   
     length 2.0537   
     axis 0 0 0   XYZ
    dof rx ry rz
    limits (-20.0 45.0)
           (-30.0 30.0)
           (-30.0 30.0)
  end
  begin
     id 12 
     name upperback
     direction 0.0198981 0.999794 0.00389455   
     length 2.05302   
     axis 0 0 0   XYZ
    dof rx ry rz
    limits (-20.0 45.0)
           (-30.0 30.0)
           (-30.0 30.0)
  end
  begin
     id 13 
     name thorax
     direction 0.0304566 0.99935 0.0192987   
     length 2.05315   
     axis 0 0 0   XYZ
    dof rx ry rz
    limits (-20.0 45.0)
           (-30.0 30.0)
           (-30.0 30.0)
  end
  begin
     id 14 
     name lowerneck
     direction -0.0196762 0.99417 0.106017   
     length 1.82056   
     axis 0 0 0   XYZ
    dof rx ry rz
    limits (-20.0 45.0)
           (-30.0 30.0)
           (-30.0 30.0)
  end
  begin
     id 15 
     name upperneck
     direction 0.00517787 0.9802 -0.197944   
     length 1.83835   
     axis 0 0 0   XYZ
    dof rx ry rz
    limits (-20.0 45.0)
           (-30.0 30.0)
           (-30.0 30.0)
  end
  begin
     id 16
     name head
     direction 0.00211419 0.996945 -0.078081  
     length 1.85629  
     axis 0 0 0   XYZ
    dof rx ry rz
    limits (-20.0 45.0)
           (-30.0 30.0)
           (-30.0 30.0)
  end
  begin
     id 17 
     name lclavicle
     direction 0.930001 0.365811 -0.0357824  
     length 3.81961  
     axis 0 0 0   XYZ
    dof ry rz
    limits (-20.0 10.0)
           (0.0 20.0)
  end
  begin
     id 18 
     name lhumerus
     direction 1 -4.48968e-011 -3.06644e-027   
     length 5.14507   
     axis 180 -30 -90   XYZ
    dof rx ry rz
    limits (-60.0 90.0)
           (-90.0 90.0)
           (-90.0 90.0)
  end
  begin
     id 19
     name lradius
     direction 1 -4.48965e-011 9.06925e-028   
     length 3.50646   
     axis 180 -30 -90   XYZ
    dof rx
    limits (-10.0 170.0)
  end
  begin
     id 20
     name lwrist
     direction 1 -4.48957e-011 1.03922e-027   
     length 1.75323   
     axis -2.56395e-016 90 90   XYZ
    dof ry
    limits (-180.0 0.0)
 end
  begin
     id 21 
     name lhand
     direction 1 -4.48967e-011 2.08017e-027   
     length 0.629969   
     axis -1.32723e-015 90 90   XYZ
    dof rx rz
    limits (-90.0 90.0)
           (-45.0 45.0)
  end
  begin
     id 22 
     name lfingers
     direction 1 -4.49089e-011 4.20095e-027   
     length 0.507897   
     axis -2.6545e-015 90 90   XYZ
    dof rx
    limits (0.0 90.0)
  end
  begin
     id 23
     name lthumb
     direction 0.707107 -6.35001e-011 0.707107   
     length 0.729241   
     axis -90 45 5.05613e-014   XYZ
    dof rx rz
    limits (-45.0 45.0)
           (-45.0 45.0)
  end
  begin
     id 24 
     name rclavicle
     direction -0.881882 0.464123 -0.0829113   
     length 3.47515  
     axis 0 0 0   XYZ 
    dof ry rz
    limits (-10.0 20.0)
           (-20.0 0.0)
  end
  begin
     id 25 
     name rhumerus
     direction -1 -4.48961e-011 -1.55672e-027  
     length 5.232   
     axis 180 30 90   XYZ
    dof rx ry rz
    limits (-90.0 60.0)
           (-90.0 90.0)
           (-90.0 90.0)
  end
  begin
     id 26 
     name rradius
     direction -1 -4.48963e-011 6.18178e-029   
     length 3.65641   
     axis 180 30 90   XYZ
    dof rx
    limits (-10.0 170.0)
  end
  begin
     id 27 
     name rwrist
     direction -1 -4.48982e-011 1.04136e-027   
     length 1.8282   
     axis -2.56395e-016 -90 -90   XYZ
    dof ry
    limits (-180.0 0.0)
  end
  begin
     id 28
     name rhand
     direction -1 -4.48929e-011 2.07378e-027   
     length 0.656807   
     axis -1.32723e-015 -90 -90   XYZ
    dof rx rz
    limits (-90.0 90.0)
           (-45.0 45.0)
  end
  begin
     id 29
     name rfingers
     direction -1 -4.489e-011 4.13816e-027   
     length 0.529535   
     axis -2.6545e-015 -90 -90   XYZ
    dof rx
    limits (0.0 90.0)
  end
  begin
     id 30
     name rthumb
     direction -0.707107 -6.34843e-011 0.707107   
     length 0.760309   
     axis -90 -45 -5.05613e-014   XYZ
    dof rx rz
    limits (-45.0 45.0)
           (-45.0 45.0)
  end
:hierarchy
  begin
    root lhipjoint rhipjoint lowerback
    lhipjoint lfemur
    lfemur ltibia
    ltibia lfoot
    lfoot ltoes
    rhipjoint rfemur
    rfemur rtibia
    rtibia rfoot
    rfoot rtoes
    lowerback upperback
    upperback thorax
    thorax lowerneck lclavicle rclavicle
    lowerneck upperneck
    upperneck head
    lclavicle lhumerus
    lhumerus lradius
    lradius lwrist
    lwrist lhand lthumb
    lhand lfingers
    rclavicle rhumerus
    rhumerus rradius
    rradius rwrist
    rwrist rhand rthumb
    rhand rfingers
  end

#!OML:ASF H:\ManfredETheater\Project 1\Capture day 1\Session 1\subject.ASF
:FULLY-SPECIFIED
:DEGREES
16
root 1.16746 15.3773 32.2219 -155.543 -1.65621 -185.684
lowerback 20.4078 1.15378 -1.76565
upperback 0.662563 0.696457 -1.46892
thorax -10.7525 0.268585 -0.795664
lowerneck -15.0506 -3.75034 -4.99711
upperneck -6.3175 -5.13488 3.8318
head 0.761687 -2.82523 1.80481
rclavicle -5.96354e-015 -1.63003e-014
rhumerus -45.8155 8.31293 -94.7784
rradius 84.5578
rwrist -10.882
rhand -25.4998 3.92822
rfingers 7.12502
rthumb 1.02884 -26.049
lclavicle -5.96354e-015 -1.63003e-014
lhumerus -58.0696 -1.32206 93.1477
lradius 94.3146
lwrist 13.9097
lhand -24.4944 -11.1534
lfingers 7.12502
lthumb 1.99986 18.8169
rfemur -24.5164 -9.48132 17.4116
rtibia 79.2758
rfoot 5.38157 -12.6157
rtoes 23.5999
lfemur -56.5801 -1.38247 -29.6137
ltibia 71.9274
lfoot -30.1216 -7.7805
ltoes 12.3966
17
root 1.1992 15.329 31.7318 -155.45 -2.16589 -186.855
lowerback 20.819 0.758107 -2.59485
upperback 0.684875 -0.0744555 -1.60375
thorax -10.9585 -0.0635532 -0.247106
lowerneck -15.0834 -3.498 -4.92017
upperneck -6.8587 -4.87864 3.73398
head 0.571101 -2.7312 1.77852
rclavicle -7.55382e-015 1.70955e-014
rhumerus -46.6461 6.59207 -94.1784
rradius 80.4635
rwrist -11.7929
rhand -26.2562 4.1182
rfingers 7.12502
rthumb 0.298296 -25.8613
lclavicle -7.55382e-015 1.70955e-014
lhumerus -53.8461 -1.88457 94.7283
lradius 93.9005
lwrist 14.7119
lhand -24.6457 -11.4042
lfingers 7.12502
lthumb 1.8538 18.5675
rfemur -28.772 -10.2324 16.3502
rtibia 83.4515
rfoot 2.4909 -12.1551
rtoes 22.2578
lfemur -54.434 -2.75372 -30.0572
ltibia 71.9216
lfoot -31.3626 -7.75746
ltoes 11.1384
18
root 1.22953 15.2735 31.2419 -155.255 -2.64435 -187.807
lowerback 21.0915 0.380135 -3.24263
upperback 0.647659 -0.764651 -1.6829
thorax -11.1376 -0.358329 0.241729
lowerneck -15.1271 -3.28166 -4.88259
upperneck -7.2367 -4.6482 3.67908
head 0.440852 -2.64113 1.76988
rclavicle 1.03368e-014 2.42517e-014
rhumerus -47.5853 4.95557 -93.315
rradius 76.4395
rwrist -12.6577
rhand -27.1237 4.32451
rfingers 7.12502
rthumb -0.539604 -25.6546
lclavicle 1.03368e-014 2.42517e-014
lhumerus -49.6062 -2.90741 96.2108
lradius 93.7401
lwrist 15.6992
lhand -24.6609 -11.8826
lfingers 7.12502
lthumb 1.83903 18.0893
rfemur -33.283 -10.8493 15.4874
rtibia 87.2936
rfoot -0.20611 -11.6479
rtoes 20.6161
lfemur -52.4145 -3.91833 -30.334
ltibia 71.8794
lfoot -32.5262 -8.00939
ltoes 10.1485
19
root 1.25912 15.2132 30.7491 -154.962 -3.09828 -188.539
lowerback 21.2097 0.0163577 -3.69085
upperback 0.546699 -1.36956 -1.72227
thorax -11.2941 -0.61535 0.637067
lowerneck -15.2274 -3.11876 -4.88134
upperneck -7.39197 -4.45876 3.69268
head 0.398566 -2.55946 1.78477
rclavicle 8.94531e-015 1.59028e-014
rhumerus -48.7275 3.46013 -92.2598
rradius 72.659
rwrist -13.4948
rhand -28.0912 4.57576
rfingers 7.12502
rthumb -1.47401 -25.3989
lclavicle 8.94531e-015 1.59028e-014
lhumerus -45.4419 -4.36612 97.5118
lradius 93.9532
lwrist 16.6353
lhand -24.5388 -12.505
lfingers 7.12502
lthumb 1.95701 17.4658
rfemur -38.0167 -11.3482 14.845
rtibia 90.7317
rfoot -2.67902 -11.1429
rtoes 18.7975
lfemur -50.4701 -4.81639 -30.4726
ltibia 71.7556
lfoot -33.64 -8.45249
ltoes 9.4377
20
root 1.28976 15.1522 30.25 -154.604 -3.52503 -189.083
lowerback 21.1971 -0.327609 -3.97421
upperback 0.391564 -1.89241 -1.73928
thorax -11.4368 -0.836615 0.937515
lowerneck -15.3981 -3.01578 -4.90667
upperneck -7.32296 -4.31914 3.78112
head 0.446904 -2.49039 1.82328
rclavicle -1.13307e-014 -8.74653e-015
rhumerus -50.1534 2.16301 -91.0937
rradius 69.3414
rwrist -14.3196
rhand -29.0708 4.82448
rfingers 7.12502
rthumb -2.42009 -25.1415
lclavicle -1.13307e-014 -8.74653e-015
lhumerus -41.4159 -6.19456 98.5648
lradius 94.6175
lwrist 17.2707
lhand -24.3168 -13.1887
lfingers 7.12502
lthumb 2.17143 16.78
rfemur -42.8971 -11.7354 14.4035
rtibia 93.6953
rfoot -4.9204 -10.6953
rtoes 16.8292
lfemur -48.5097 -5.41604 -30.5085
ltibia 71.4794
lfoot -34.697 -8.99754
ltoes 8.94408
21
root 1.3226 15.0956 29.7414 -154.205 -3.93547 -189.47
lowerback 21.0694 -0.652452 -4.12294
upperback 0.196151 -2.34389 -1.74052
thorax -11.5628 -1.02775 1.15458
lowerneck -15.648 -2.96538 -4.9419
upperneck -7.05699 -4.2264 3.92322
head 0.577477 -2.43444 1.87647
rclavicle 1.47101e-014 -5.56597e-015
rhumerus -51.9243 1.13405 -89.9022
rradius 66.698
rwrist -15.1474
rhand -30.0224 5.17489
rfingers 7.12502
rthumb -3.33906 -24.7787
lclavicle 1.47101e-014 -5.56597e-015
lhumerus -37.5617 -8.28307 99.3313
lradius 95.7799
lwrist 17.4515
lhand -24.0619 -13.7799
lfingers 7.12502
lthumb 2.41758 16.1862
rfemur -47.8311 -12.0243 14.1448
rtibia 96.1083
rfoot -6.87777 -10.3431
rtoes 14.9855
lfemur -46.4494 -5.73356 -30.4451
ltibia 70.9645
lfoot -35.676 -9.63889
ltoes 8.63891
22
root 1.35809 15.0499 29.2198 -153.797 -4.32977 -189.74
lowerback 20.862 -0.957466 -4.18905
upperback -0.0282637 -2.73918 -1.72228
thorax -11.679 -1.19438 1.32631
lowerneck -15.9563 -2.94777 -4.97651
upperneck -6.65615 -4.16436 4.08209
head 0.765061 -2.38703 1.93258
rclavicle -3.39922e-014 -2.14687e-014
rhumerus -54.0785 0.434947 -88.7558
rradius 64.9108
rwrist -15.958
rhand -30.8193 5.65269
rfingers 7.12502
rthumb -4.10863 -24.2874
lclavicle -3.39922e-014 -2.14687e-014
lhumerus -33.9025 -10.49 99.8075
lradius 97.466
lwrist 17.2116
lhand -23.8566 -14.1841
lfingers 7.12502
lthumb 2.61587 15.7796
rfemur -52.7039 -12.221 14.0259
rtibia 97.9043
rfoot -8.56692 -10.1097
rtoes 13.3276
lfemur -44.2073 -5.81716 -30.2866
ltibia 70.1184
lfoot -36.5354 -10.3367
ltoes 8.28977
23
root 1.39579 15.0197 28.6829 -153.408 -4.70221 -189.925
lowerback 20.6055 -1.24161 -4.21995
upperback -0.264256 -3.09086 -1.67521
thorax -11.7809 -1.34091 1.49411
lowerneck -16.3191 -2.93942 -4.99767
upperneck -6.18034 -4.11211 4.20699
head 0.986982 -2.34218 1.97461
rclavicle 1.47101e-014 1.78906e-014
rhumerus -56.5972 0.104564 -87.7092
rradius 64.0644
rwrist -16.6877
rhand -31.4164 6.27766
rfingers 7.12502
rthumb -4.68526 -23.6505
lclavicle 1.47101e-014 1.78906e-014
lhumerus -30.4241 -12.6795 100.014
lradius 99.6613
lwrist 16.7923
lhand -23.7194 -14.3773
lfingers 7.12502
lthumb 2.74839 15.5848
rfemur -57.3956 -12.3337 13.996
rtibia 99.0417
rfoot -10.0165 -10.003
rtoes 11.8529
lfemur -41.7273 -5.7432 -30.0327
ltibia 68.8753
lfoot -37.2084 -11.1068
ltoes 7.92199
